<?xml version="1.0" encoding="UTF-8"?>
<svg id="Avatar" xmlns="http://www.w3.org/2000/svg" version="1.1" viewBox="0 0 4500 4000">
  <!-- Generator: Adobe Illustrator 30.0.0, SVG Export Plug-In . SVG Version: 2.1.1 Build 123)  -->
  <defs>
    <style>
      .st0 {
        fill: #24455b;
      }

      .st1 {
        fill: #eaeaea;
      }

      .st2 {
        fill: #4682b4;
      }

      .st3 {
        opacity: .6;
      }

      .st3, .st4 {
        fill: #e4665f;
      }

      .st4 {
        opacity: .8;
      }

      .st5 {
        fill: #fff;
      }

      .st6 {
        fill: #f2a883;
      }

      .st7 {
        fill: #7f4c38;
      }

      .st8 {
        fill: #b2b2b2;
      }
    </style>
  </defs>
  <rect class="st1" width="4500" height="4000"/>
  <polygon class="st8" points="953.6 760.9 921.6 760.9 921.6 391.5 1290.4 391.5 1290.4 423.5 953.6 423.5 953.6 760.9"/>
  <polygon class="st8" points="3581.2 760.9 3549.2 760.9 3549.2 423.5 3212.3 423.5 3212.3 391.5 3581.2 391.5 3581.2 760.9"/>
  <polygon class="st8" points="3581.2 2975.2 3212.3 2975.2 3212.3 2943.2 3549.2 2943.2 3549.2 2605.8 3581.2 2605.8 3581.2 2975.2"/>
  <polygon class="st8" points="1290.4 2975.2 921.6 2975.2 921.6 2605.8 953.6 2605.8 953.6 2943.2 1290.4 2943.2 1290.4 2975.2"/>
  <path class="st6" d="M3041.7,3111.6s-107.7,448.7-790.3,443.4c-682.6,5.3-790.3-443.4-790.3-443.4l256.8-225-8.9-290-8.3-242.9h1101.6l-8.3,242.9-7.9,290,255.8,225Z"/>
  <path class="st4" d="M2802.2,2353.8l-8.3,242.9c-53.8,81-153.9,211.8-286.7,298.8-50.7,33.2-110.2,52.4-170.6,56.2-24.5,1.5-146.9,1.5-171.4,0-60.4-3.7-118.9-23-169.6-56.2-132.8-87-232.8-217.7-286.7-298.8l-8.3-242.9h1101.6Z"/>
  <path class="st6" d="M2300.2,679.7h-97.7c-1.4,0-2.7,0-4.1.1h0c-806,23.4-701.6,820.4-701.6,820.4l48.2,364.7,88.2,459.6,1.4,7.7c4.2,22.9,12.8,44.9,25.4,64.8,43.9,69.5,160.3,235.8,325.2,339.7,52.7,33.2,113.5,52.4,176.4,56.1,25.5,1.5,152.7,1.5,178.2,0,62.8-3.7,124.7-23,177.4-56.1,165-103.9,281.3-270.2,325.2-339.7,12.6-19.9,21.2-41.9,25.4-64.8l85.6-467.3,48.2-364.7s104.4-797-701.6-820.5Z"/>
  <path class="st6" d="M1514.4,1527.5s-84.7-82.3-156.3-15.4c-54.6,51,26.1,261.3,51.3,332.7,25.2,71.4,60.5,206.4,179,186.8,0,0-37.4-436.4-74-504.1Z"/>
  <path class="st3" d="M1439.1,1703.3c10.2-20.9,27.5-34.2,50.4-21.1,11.2,6.4,18,18.2,23.9,29.6,38.5,74.2,61.3,156.4,66.7,239.8-33.5-14-74.9-43.5-89.7-78.4-7.3-17.2.8-27.7-3.1-43-5.5-21.8-22.2-22.1-37.5-35.1-7-5.9-13.3-12.5-17.3-20.9-7.5-15.8-4.7-47.9,6.6-70.9Z"/>
  <path class="st3" d="M1415.4,1691.6s6.7-102.3,44.7-80.2c0,0-24.9-63.1-53.5-69.8-28.6-6.7-8.1,138.7,8.8,150Z"/>
  <path class="st6" d="M2989.1,1527.5s84.7-82.3,156.3-15.4c54.6,51-26.1,261.3-51.3,332.7-25.2,71.4-60.5,206.4-179,186.8,0,0,37.4-436.4,74-504.1Z"/>
  <path class="st3" d="M3064.4,1703.3c-10.2-20.9-27.5-34.2-50.4-21.1-11.2,6.4-18,18.2-23.9,29.6-38.5,74.2-61.3,156.4-66.7,239.8,33.5-14,74.9-43.5,89.7-78.4,7.3-17.2-.8-27.7,3.1-43,5.5-21.8,22.2-22.1,37.5-35.1,7-5.9,13.3-12.5,17.3-20.9,7.5-15.8,4.7-47.9-6.6-70.9Z"/>
  <path class="st3" d="M3088.1,1691.6s-6.7-102.3-44.7-80.2c0,0,24.9-63.1,53.5-69.8,28.6-6.7,8.1,138.7-8.8,150Z"/>
  <path class="st5" d="M2711.4,1749.6c-1.2,0-2.4-.2-3.5-.8l-410.7-191.3c-3.1-1.4-4.9-4.6-4.8-7.9.2-3.4,2.4-6.3,5.6-7.4l402.1-137.9-206.9-456.1c-1.9-4.1,0-9,4.1-10.9,4.1-1.9,9,0,10.9,4.1l210.7,464.3c1,2.1,1,4.5,0,6.7-.9,2.1-2.7,3.8-4.9,4.5l-391.3,134.2,384.8,179.3,163-325.4c2-4.1,7-5.7,11.1-3.7,4.1,2,5.7,7,3.7,11.1l-166.6,332.6c-1.4,2.9-4.4,4.6-7.4,4.6Z"/>
  <path class="st5" d="M2874.1,2055.1c-.5,0-1,0-1.4-.1l-457.6-80.7c-3.1-.6-5.7-2.9-6.5-5.9l-115.8-416.2c-1.2-4.4,1.3-8.9,5.7-10.2,4.4-1.2,8.9,1.3,10.2,5.7l114.4,411.2,435.8,76.8-154.7-290.6c-.6-1.2-1-2.5-1-3.9v-332.1c0-4.5,3.7-8.2,8.2-8.2l166.6-.5h0c4.5,0,8.2,3.7,8.2,8.2,0,4.6-3.7,8.3-8.2,8.3l-158.4.4v321.8l161.7,303.7c1.5,2.8,1.2,6.2-.6,8.7-1.6,2.2-4.1,3.4-6.7,3.4Z"/>
  <path class="st5" d="M2728.7,2457.5c-2.5,0-4.9-1.1-6.5-3.2l-154.5-200.9c-1.4-1.8-2-4.1-1.6-6.4.4-2.2,1.6-4.2,3.5-5.5l299.9-201.5c3.8-2.5,8.9-1.5,11.4,2.2,2.5,3.8,1.5,8.9-2.2,11.4l-292.6,196.5,149.1,193.9c2.8,3.6,2.1,8.8-1.5,11.6-1.5,1.2-3.3,1.7-5,1.7Z"/>
  <path class="st5" d="M2250.8,2741.3c-1.6,0-3.2-.4-4.6-1.4-3.8-2.5-4.8-7.7-2.3-11.4l315.4-472.7-309.1-18.9c-4.4-.3-7.7-3.9-7.7-8.2v-280.7c0-4.6,3.7-8.2,8.2-8.2s8.3,3.7,8.3,8.2v272.9l315.6,19.3c2.9.2,5.6,1.9,6.9,4.6,1.3,2.6,1.1,5.8-.5,8.2l-323.4,484.7c-1.6,2.4-4.2,3.7-6.9,3.7Z"/>
  <path class="st5" d="M2250.8,2236.8c-1.5,0-3-.4-4.4-1.3-3.9-2.4-5-7.5-2.6-11.4l158.7-251.2-152.6-16.9c-4.5-.5-7.8-4.6-7.3-9.1.5-4.5,4.6-7.8,9.1-7.3l165.7,18.3c2.8.3,5.3,2.1,6.5,4.6s1.1,5.6-.5,8l-165.7,262.4c-1.6,2.5-4.2,3.8-7,3.8Z"/>
  <circle class="st5" cx="2416.5" cy="1966.1" r="33.5"/>
  <circle class="st5" cx="2874.1" cy="2048.2" r="33.5"/>
  <circle class="st5" cx="2574.2" cy="2248.3" r="33.5"/>
  <circle class="st5" cx="2251" cy="2228.6" r="33.5"/>
  <circle class="st5" cx="2712" cy="1741.3" r="33.5"/>
  <circle class="st5" cx="2300.8" cy="1550.1" r="33.5"/>
  <circle class="st5" cx="2712" cy="1409.7" r="33.5"/>
  <circle class="st5" cx="2878" cy="1409.7" r="33.5"/>
  <circle class="st5" cx="2744.1" cy="1126.4" r="33.5"/>
  <circle class="st5" cx="2500.9" cy="944.9" r="33.5"/>
  <circle class="st5" cx="2727.7" cy="2451" r="33.5"/>
  <ellipse class="st5" cx="2251.1" cy="2733" rx="33.8" ry="33.5"/>
  <circle class="st5" cx="2250.8" cy="2497.9" r="33.5"/>
  <path class="st5" d="M1790.2,1749.6c-3,0-5.9-1.7-7.4-4.6l-166.6-332.6c-2-4.1-.4-9,3.7-11.1,4.1-2,9-.4,11.1,3.7l163,325.4,384.8-179.3-391.3-134.2c-2.2-.8-4-2.4-4.9-4.5-.9-2.1-.9-4.6,0-6.7l210.7-464.3c1.9-4.1,6.8-6,10.9-4.1,4.1,1.9,6,6.8,4.1,10.9l-206.9,456.1,402.1,137.9c3.2,1.1,5.4,4,5.6,7.4.2,3.4-1.7,6.5-4.8,7.9l-410.7,191.3c-1.1.5-2.3.8-3.5.8Z"/>
  <path class="st5" d="M1627.5,2055.1c-2.6,0-5.1-1.2-6.7-3.4-1.9-2.6-2.1-5.9-.6-8.7l161.7-303.7v-321.8l-158.4-.4c-4.6,0-8.2-3.7-8.2-8.3,0-4.5,3.7-8.2,8.2-8.2h0l166.6.5c4.5,0,8.2,3.7,8.2,8.2v332.1c0,1.4-.3,2.7-1,3.9l-154.7,290.6,435.8-76.8,114.4-411.2c1.2-4.4,5.8-7,10.2-5.7,4.4,1.2,7,5.8,5.7,10.2l-115.8,416.2c-.9,3.1-3.4,5.4-6.5,5.9l-457.6,80.7c-.5,0-1,.1-1.4.1Z"/>
  <path class="st5" d="M2250.8,2741.2c-1.1,0-2.2-.2-3.2-.6h0s0,0,0,0c0,0,0,0,0,0,0,0,0,0,0,0,0,0,0,0,0,0,0,0,0,0,0,0,0,0,0,0,0,0,0,0,0,0,0,0,0,0,0,0,0,0,0,0,0,0,0,0,0,0,0,0,0,0,0,0,0,0,0,0,0,0,0,0,0,0,0,0,0,0,0,0,0,0,0,0,0,0,0,0,0,0,0,0,0,0,0,0,0,0,0,0,0,0,0,0-.2,0-.4-.2-.6-.3,0,0,0,0,0,0l-478.9-275.3c-1.7-1-3-2.6-3.7-4.4l-144.4-410.8c-.3-.9-.5-1.8-.5-2.7l-3.9-638.1c0-1.2.3-2.5.8-3.6l133.9-284.1c.6-1.2,1.5-2.3,2.6-3.1l243.4-179.8c1.4-1,3.1-1.6,4.9-1.6h499.8c1.8,0,3.5.6,4.9,1.6l243.4,179.8c1.1.8,2,1.9,2.6,3.1l133.9,284.1c.5,1.1.8,2.3.8,3.6l-3.9,638.1c0,.9-.2,1.9-.5,2.8l-145.4,402.4c-.6,1.8-1.9,3.3-3.5,4.3l-477.9,283.8c-.3.2-.5.3-.8.4h0s0,0,0,0h0c0,0-.1,0-.2,0,0,0,0,0,0,0,0,0,0,0,0,0,0,0,0,0,0,0,0,0,0,0,0,0,0,0,0,0,0,0,0,0,0,0,0,0t0,0s0,0,0,0c0,0,0,0,0,0,0,0,0,0,0,0,0,0,0,0,0,0,0,0,0,0,0,0,0,0,0,0,0,0,0,0,0,0,0,0h0s0,0,0,0h0c-.9.3-1.9.5-2.9.5ZM1778.6,2452.1l463.9,266.7v-216.8l-320.2-247.1c-3.2-2.5-4.2-7-2.2-10.6l157.7-282.1c2.2-4,7.3-5.4,11.2-3.2,4,2.2,5.4,7.2,3.2,11.2l-154.2,275.9,312.7,241.3,312.7-241.3-154.2-275.9c-2.2-4-.8-9,3.2-11.2,4-2.2,9-.8,11.2,3.2l157.7,282.1c2,3.6,1.1,8.1-2.2,10.6l-320.2,247.1v216.6l462.9-274.9,143.9-398.2,3.9-634.9-132.2-280.5-239.6-176.9h-494.4l-239.6,176.9-132.2,280.5,3.9,634.9,142.9,406.6Z"/>
  <path class="st5" d="M1771.8,2466c-1.7,0-3.4-.5-4.9-1.6-3.7-2.7-4.4-7.9-1.7-11.5l150.4-202.4-292.7-196.6c-3.8-2.5-4.8-7.7-2.2-11.4,2.5-3.8,7.7-4.8,11.4-2.2l299.9,201.5c1.9,1.3,3.1,3.2,3.5,5.5.4,2.2-.2,4.5-1.5,6.3l-155.5,209.4c-1.6,2.2-4.1,3.3-6.6,3.3Z"/>
  <path class="st5" d="M2250.8,2741.3c-2.7,0-5.3-1.3-6.9-3.7l-323.4-484.7c-1.6-2.5-1.8-5.6-.5-8.2,1.3-2.6,3.9-4.4,6.9-4.6l315.6-19.3v-272.9c0-4.6,3.7-8.2,8.2-8.2s8.2,3.7,8.2,8.2v280.7c0,4.4-3.4,8-7.7,8.2l-309.1,18.9,315.4,472.7c2.5,3.8,1.5,8.9-2.3,11.4-1.4.9-3,1.4-4.6,1.4Z"/>
  <path class="st5" d="M2250.8,2236.8c-2.7,0-5.4-1.4-7-3.8l-165.7-262.4c-1.5-2.4-1.7-5.4-.5-8s3.7-4.3,6.5-4.6l165.7-18.3c4.5-.5,8.6,2.8,9.1,7.3.5,4.5-2.8,8.6-7.3,9.1l-152.6,16.9,158.7,251.2c2.4,3.9,1.3,8.9-2.6,11.4-1.4.9-2.9,1.3-4.4,1.3Z"/>
  <circle class="st5" cx="2250.8" cy="1947.9" r="33.5"/>
  <circle class="st5" cx="2085.1" cy="1966.1" r="33.5"/>
  <circle class="st5" cx="1627.5" cy="2048.2" r="33.5"/>
  <circle class="st5" cx="1927.4" cy="2248.3" r="33.5"/>
  <circle class="st5" cx="1790.4" cy="1741.3" r="33.5"/>
  <circle class="st5" cx="2200.8" cy="1550.1" r="33.5"/>
  <circle class="st5" cx="1789.6" cy="1409.7" r="33.5"/>
  <circle class="st5" cx="1623.6" cy="1409.7" r="33.5"/>
  <circle class="st5" cx="1757.4" cy="1126.4" r="33.5"/>
  <circle class="st5" cx="2000.6" cy="944.9" r="33.5"/>
  <circle class="st5" cx="1772.8" cy="2459.4" r="33.5"/>
  <path class="st5" d="M2299.6,1558.3h-98.8c-4.6,0-8.2-3.7-8.2-8.2s3.7-8.2,8.2-8.2h98.8c4.6,0,8.2,3.7,8.2,8.2s-3.7,8.2-8.2,8.2Z"/>
  <path class="st2" d="M4313.5,4000H188.4c21.9-169,86.8-401.6,273-534.5,316.5-225.9,1198.1-547.8,1198.1-547.8,0,0-98.6,299.4,297,447.4,189.8,71,399.2,71,588.9,0,395.6-148,297-447.4,297-447.4,0,0,881.6,321.9,1198.1,547.8,186.2,132.9,251.1,365.5,273,534.5Z"/>
  <path class="st7" d="M2885.1,593.1s-240.3-323.7-619.9-310.5h-30.8c-379.6-13.2-619.9,310.5-619.9,310.5-335.4,214.5-92.2,1124.4-71.7,1198.8.7,2.5,2.8,4.5,5.5,4.8,3.9.4,7.2-2.7,7.1-6.5-1.4-50.7-8.7-381.3,33-414.3,45.2-35.7,23.8-259.4,23.8-259.4,0,0,0-422.7,619.6-249.3,5.8,1.6,18.6,2.4,18.6,2.4,6.3-.3,11.9-.8,17.7-2.4,619.6-173.5,619.6,249.3,619.6,249.3,0,0-21.4,223.7,23.8,259.4,41.7,32.9,34.4,363.6,33,414.3-.1,3.8,3.2,6.9,7,6.5,2.6-.3,4.8-2.3,5.5-4.8,20.5-74.4,263.7-984.3-71.7-1198.8Z"/>
  <polygon class="st0" points="1041.8 3730.8 1041.8 4000 960.4 4000 1041.8 3730.8"/>
  <polygon class="st0" points="3541.5 4000 3460.1 4000 3460.1 3730.8 3541.5 4000"/>
</svg>